<svg version="1.0" xmlns="http://www.w3.org/2000/svg" width="170.667" height="170.667" viewBox="0 0 128 128"><path d="M5.5 8c-.9 1.5.3 12.7 2.1 19.6.8 3.2 2.9 8.7 4.6 12.1l3.1 6.3-1.9 5.7c-1.9 5.9-2.7 24.6-1.2 30.3 6 23.4 25.7 37.8 51.8 37.8 25.7 0 45.5-14.5 51.5-37.8 2.2-8.5 1.6-23.1-1.3-31.2-1.3-3.8-1.7-6-1-6.4 4.3-2.7 11.2-29.3 9.3-35.4-.9-2.9-2.1-2.5-7.8 2.5-5.3 4.6-14.6 10-19.8 11.5-2.2.7-4.3.4-7.7-.9-14.6-5.7-30.7-5.9-44.6-.7-5.5 2.1-6.5 2.2-10.3 1.1-5.4-1.6-11.6-5.2-18.6-11C8 6.9 6.6 6.3 5.5 8z" fill="#fff"/></svg>